P1
# Imagen generada del archivo image_07.qt
8 8
0 0 0 0 0 0 0 0 
0 0 0 0 0 0 0 0 
0 0 0 0 1 1 1 0 
0 0 0 0 1 1 0 0 
1 1 1 1 1 1 0 0 
1 1 1 1 1 1 0 0 
1 1 1 1 0 0 0 0 
1 1 1 1 0 0 0 1 
